<?xml version="1.0" encoding="UTF-8"?>
<svg id="Ebene_1" xmlns="http://www.w3.org/2000/svg" xmlns:xlink="http://www.w3.org/1999/xlink" version="1.1" viewBox="0 0 173.5 42.5">
  <!-- Generator: Adobe Illustrator 29.3.1, SVG Export Plug-In . SVG Version: 2.1.0 Build 151)  -->
  <defs>
    <style>
      .st0 {
        fill: #fff;
      }
    </style>
  </defs>
  <path class="st0" d="M32.1,1H7.8C4.4,1,1.6,3.8,1.6,7.3v24.3c0,3.4,2.8,6.2,6.2,6.2h24.3c3.4,0,6.2-2.8,6.2-6.2V7.2c0-3.4-2.8-6.2-6.2-6.2ZM19,16v4.8h-4.8v5.8h-5.8v-5.8h5.8v-4.8h-5.8v-5.8h-2.9v-2.9h2.9v2.9h5.8v-3.9h3.9v3.9h-3.9v5.8h4.8v-4.8h4.8v4.8h3.9v-3.9h3.9v-2.9h2.9v2.9h-2.9v3.9h-3.9v3.9h-3.9v-3.9h-4.8ZM29.8,30.7l-4,4v-12.4l9.6,7.7-5.6.7Z"/>
  <path class="st0" d="M53.9,31.3c0-.8,0-1.5-.3-2.1s-.5-1.2-.9-1.6-.9-.8-1.4-1c-.6-.2-1.2-.3-1.9-.3h-3.1v10.1h3.1c.7,0,1.3,0,1.9-.3.6-.2,1-.6,1.4-1s.7-1,.9-1.6c.2-.7.3-1.4.3-2.2M55.7,31.3c0,1-.2,1.9-.5,2.6-.3.8-.7,1.5-1.3,2s-1.2,1-2,1.3-1.7.5-2.6.5h-4.8v-12.9h4.8c1,0,1.8.2,2.6.5s1.5.8,2,1.3,1,1.3,1.3,2c.3.8.5,1.7.5,2.7"/>
  <path class="st0" d="M59.3,37.8h-1.6v-9.2h1.6v9.2ZM59.7,25.7c0,.2,0,.3,0,.4s0,.3-.3.4c0,.1-.2.2-.4.2,0,.1-.3.1-.4.1-.2,0-.3,0-.4-.1,0-.1-.3-.1-.4-.2,0-.1-.2-.2-.2-.4,0-.1,0-.3,0-.4,0-.2,0-.3,0-.4s0-.3.2-.4c0-.1.2-.2.4-.2,0-.1.3-.1.4-.1.2,0,.3,0,.4.1,0,.1.3.1.4.2,0,.1.2.2.3.4,0,0,0,.3,0,.4"/>
  <path class="st0" d="M65.2,33.3c.3,0,.6,0,.9,0,.2,0,.5-.2.6-.4.2-.2.3-.4.4-.6,0-.2,0-.5,0-.7,0-.6-.2-1-.5-1.3s-.8-.5-1.5-.5-1.1.2-1.5.5c-.3.3-.5.8-.5,1.3s0,.5,0,.7.2.4.4.6c.2.2.4.3.6.4.3,0,.5,0,.9,0M68.1,38.3c0-.2,0-.4-.2-.5s-.3-.2-.5-.3-.5,0-.7-.2c-.3,0-.6,0-.9,0s-.6,0-1,0c-.3,0-.6,0-.9,0-.3.2-.6.4-.8.6-.2.2-.3.5-.3.8s0,.4.2.6c0,.2.3.3.5.5.2,0,.5.2.8.3s.7,0,1.2,0,.8,0,1.2,0c.3,0,.6-.2.9-.3.2,0,.4-.3.5-.5,0-.3,0-.5,0-.7M69.7,29v.6c0,.2,0,.3-.4.4h-1c.2.5.3.9.3,1.4s0,.9-.3,1.2c-.2.4-.4.7-.7.9-.3.3-.7.5-1.1.6s-.9.2-1.4.2-.8,0-1.2-.2c-.2,0-.3.2-.4.4,0,0-.2.3-.2.4,0,.2,0,.4.3.5s.4.2.7.2.6,0,1,0,.7,0,1.1,0c.4,0,.8,0,1.1,0,.4,0,.7.2,1,.3.3.2.5.4.7.6s.3.6.3,1,0,.8-.3,1.1c-.2.4-.5.7-.8,1s-.8.5-1.4.7c-.5.2-1.1.3-1.8.3s-1.2.1-1.7,0-.9-.3-1.2-.5-.6-.5-.7-.8c-.2-.3-.2-.6-.2-.9,0-.5,0-.8.4-1.1.3-.3.7-.6,1.2-.8-.3,0-.5-.3-.6-.5-.4-.2-.4-.5-.4-.9s0-.3,0-.4c0,0,0-.3.2-.4s.2-.3.4-.4c0,0,.3-.2.5-.3-.5-.3-.8-.6-1.1-1s-.4-.9-.4-1.5,0-.9.3-1.2c.2-.4.4-.7.7-.9.3-.3.7-.5,1.1-.6s.9-.2,1.4-.2.8,0,1.1.1c.3.1.7.2.9.4,0,0,2.5,0,2.5,0Z"/>
  <path class="st0" d="M73.1,37.8h-1.6v-9.2h1.6v9.2ZM73.4,25.7c0,.2,0,.3,0,.4s0,.3-.3.4c0,.1-.2.2-.4.2,0,.1-.3.1-.4.1-.2,0-.3,0-.4-.1s-.3-.1-.4-.2-.2-.2-.2-.4c0-.1,0-.3,0-.4,0-.2,0-.3,0-.4s0-.3.2-.4.2-.2.4-.2c0-.1.3-.1.4-.1.2,0,.3,0,.4.1s.3.1.4.2.2.2.3.4c0,0,0,.3,0,.4"/>
  <path class="st0" d="M78.5,37.9c-.7,0-1.3-.2-1.7-.6-.4-.4-.6-1-.6-1.7v-5.6h-1.1c0,0-.2,0-.2-.1q0-.1,0-.3v-.6l1.5-.2.4-2.8c0-.1,0-.2,0-.2q0-.1.2-.1h.8v3.2h2.6v1.1h-2.6v5.5c0,.4,0,.7.3.9.2.2.4.3.7.3s.3,0,.4,0c0,0,.2,0,.3,0,0,0,.2,0,.2,0,0,0,0,0,.2,0s.2,0,.2.2l.5.8c-.3.3-.6.5-1,.6-.3-.1-.7,0-1.1,0"/>
  <path class="st0" d="M87.1,33.6c-.7,0-1.4,0-1.9.2-.5,0-.9.2-1.3.4s-.6.3-.7.5-.2.4-.2.7,0,.4,0,.6c0,.2.2.3.3.4,0,0,.3.2.5.2.2,0,.4,0,.6,0,.3,0,.5,0,.8,0,.2,0,.5,0,.7-.2.2,0,.4-.2.6-.4s.4-.3.6-.5v-1.9h0ZM82,29.9c.5-.5,1.1-.9,1.6-1.1.6-.2,1.2-.4,1.9-.4s1,.1,1.4.3c.4.2.7.4,1,.7.3.3.5.7.6,1.1s.2.9.2,1.4v5.9h-.7c-.2,0-.3,0-.4,0,0,0,0-.2-.2-.3l-.2-.9c-.2.2-.5.4-.7.6-.2.2-.5.3-.7.4s-.5.2-.8.3-.6,0-1,0-.7,0-1,0-.6-.2-.8-.4c-.2-.2-.4-.5-.6-.8,0-.3-.2-.7-.2-1.1s0-.7.3-1c.2-.3.5-.6,1-.9.4-.3,1-.5,1.7-.6.7-.2,1.6-.3,2.6-.3v-.7c0-.7-.2-1.2-.5-1.6s-.8-.5-1.3-.5-.7.1-1,.1c-.3.1-.5.2-.7.3-.2.1-.4.2-.5.3,0,.1-.3.1-.4.1s-.2,0-.3-.1,0-.1-.2-.2v-.5Z"/>
  <rect class="st0" x="91.2" y="24.5" width="1.6" height="13.3"/>
  <path class="st0" d="M107.1,26.8c0,.1,0,.2-.2.2s0,.1-.2.1-.2-.1-.4-.2c0-.1-.3-.2-.5-.3-.2-.1-.5-.2-.8-.3-.3-.1-.6-.2-1.1-.2s-.7.1-1,.2-.5.2-.8.4c-.2.2-.4.4-.5.6s-.2.5-.2.8,0,.7.3.9c.2.2.4.4.7.6.3.2.6.3,1,.4s.8.3,1.1.4c.4.1.8.3,1.1.4.4.2.7.4,1,.6.3.3.5.6.7.9.2.4.3.8.3,1.4s0,1.1-.3,1.6c-.2.5-.5.9-.8,1.3-.4.4-.8.7-1.4.9-.5.2-1.2.3-1.8.3s-1.6-.2-2.3-.5c-.7-.3-1.3-.7-1.8-1.2l.5-.8c0,0,0,0,.2-.2,0,0,0,0,.2,0s.2,0,.3,0c0,0,.2,0,.3.2,0,0,.3.2.4.3.2,0,.3.2.6.3.2,0,.4.2.7.2.3,0,.6,0,.9,0s.8,0,1.1-.2c.3,0,.6-.3.8-.5.2-.2.4-.5.5-.7,0-.3.2-.6.2-1s0-.7-.3-1c-.2-.2-.4-.5-.7-.6-.3-.2-.6-.3-1-.4s-.8-.2-1.1-.4c-.4-.1-.8-.3-1.1-.4-.4-.2-.7-.4-1-.6-.3-.3-.5-.6-.7-1s-.3-.9-.3-1.4,0-.9.3-1.3c.2-.4.4-.8.8-1.1.3-.3.8-.6,1.3-.8.5-.2,1.1-.3,1.7-.3s1.4.1,2,.3c.6.2,1.1.6,1.6,1l-.3,1Z"/>
  <path class="st0" d="M113.7,36.6c.9,0,1.6-.3,2-.9.4-.6.7-1.4.7-2.5s-.2-1.9-.7-2.5c-.4-.6-1.1-.9-2-.9s-.9.1-1.2.2c-.3.2-.6.4-.9.7-.2.3-.4.7-.5,1.1,0,.4-.2.9-.2,1.5,0,1.1.2,1.9.7,2.5.5.5,1.1.8,2.1.8M113.7,28.5c.7,0,1.3.1,1.8.3.5.2,1,.5,1.4.9s.7.9.9,1.5c.2.6.3,1.2.3,1.9s0,1.4-.3,2c-.2.6-.5,1.1-.9,1.5s-.8.7-1.4.9c-.5.2-1.1.3-1.8.3s-1.3,0-1.8-.3-1-.5-1.4-.9-.7-.9-.9-1.5c-.2-.6-.3-1.2-.3-2s0-1.4.3-1.9c.2-.6.5-1.1.9-1.5s.8-.7,1.4-.9c.5-.2,1.1-.3,1.8-.3"/>
  <rect class="st0" x="120.1" y="24.5" width="1.6" height="13.3"/>
  <path class="st0" d="M131.8,28.6v9.2h-1c-.2,0-.4,0-.4-.3v-1c-.5.4-.9.8-1.4,1.1s-1.1.4-1.7.4-.9,0-1.3-.2c-.4-.2-.7-.4-1-.7s-.5-.7-.6-1.1c0-.4-.2-.9-.2-1.4v-5.8h1.6v5.8c0,.7.2,1.2.5,1.6.3.4.8.6,1.5.6s.9,0,1.3-.3c.4-.2.8-.5,1.1-.9v-6.7h1.6v-.3Z"/>
  <path class="st0" d="M143.3,25.7c0,.2,0,.3-.1.4s-.1.3-.3.4c-.1.1-.2.2-.4.2-.1.1-.3.1-.4.1-.2,0-.3,0-.4-.1-.1-.1-.3-.1-.4-.2-.1-.1-.2-.2-.2-.4-.1-.1-.1-.3-.1-.4,0-.2,0-.3.1-.4s.1-.3.2-.4c.1-.1.2-.2.4-.2.1-.1.3-.1.4-.1.2,0,.3,0,.4.1.1.1.3.1.4.2.1.1.2.2.3.4,0,0,.1.2.1.4M142.9,37.8h-1.6v-7.8h-4.7v5.5c0,.4.1.7.3.9s.4.3.7.3.3,0,.4,0c.1,0,.2,0,.3,0,.1,0,.2,0,.2,0,.1,0,.1,0,.2,0s.2,0,.2.2l.5.8c-.3.3-.6.5-1,.6s-.8.2-1.2.2c-.7,0-1.3-.2-1.7-.6-.4-.4-.6-1-.6-1.7v-5.8h-1.1c-.1,0-.2,0-.2-.1q-.1-.1-.1-.3v-.6l1.5-.2.4-2.8c0-.1.1-.2.1-.2q.1-.1.2-.1h.8v3.2h6.3v8.9h.1Z"/>
  <path class="st0" d="M149.4,36.6c.9,0,1.6-.3,2-.9.4-.6.7-1.4.7-2.5s-.2-1.9-.7-2.5c-.4-.6-1.1-.9-2-.9s-.9.1-1.2.2c-.3.2-.6.4-.8.7-.2.3-.4.7-.5,1.1-.1.4-.2.9-.2,1.5,0,1.1.2,1.9.7,2.5.4.5,1.1.8,2,.8M149.4,28.5c.7,0,1.3.1,1.8.3.5.2,1,.5,1.4.9s.7.9.9,1.5.3,1.2.3,1.9-.1,1.4-.3,2-.5,1.1-.9,1.5-.8.7-1.4.9c-.5.2-1.1.3-1.8.3s-1.3,0-1.8-.3-1-.5-1.4-.9-.7-.9-.9-1.5-.3-1.2-.3-2,.1-1.4.3-1.9c.2-.6.5-1.1.9-1.5s.8-.7,1.4-.9c.5-.2,1.1-.3,1.8-.3"/>
  <path class="st0" d="M157.3,29.9c.2-.2.4-.4.6-.6.2-.2.5-.3.7-.5.2-.1.5-.2.8-.3.3-.1.6-.1.9-.1.5,0,.9.1,1.3.2.4.2.7.4,1,.7.3.3.4.7.6,1.1.1.4.2.9.2,1.4v5.8h-1.6v-5.8c0-.7-.2-1.2-.5-1.6s-.8-.6-1.4-.6-.9.1-1.3.3c-.4.2-.8.5-1.1.9v6.7h-1.6v-9.2h1c.2,0,.4.1.4.3v1.3Z"/>
  <path class="st0" d="M171.2,30.1c-.1.1-.2.2-.3.2s-.2,0-.3-.1-.3-.1-.4-.2c-.2-.1-.4-.2-.6-.2-.2-.1-.5-.1-.8-.1s-.5,0-.7.1-.4.2-.6.3c-.2.1-.3.3-.4.4s0,.3,0,.5.1.4.2.6c.1.2.3.3.5.4.2,0,.5.2.8.3s.6.2.9.3c.3,0,.6.2.9.3.3,0,.5.3.8.5.2.2.4.4.5.7s.2.6.2.9-.1.8-.2,1.2c-.1.4-.4.7-.7.9-.3.3-.7.5-1.1.6-.4,0-.9.2-1.5.2s-1.2,0-1.7-.3-1-.5-1.3-.8l.4-.6c0,0,.1,0,.2-.2.1,0,.2,0,.3,0s.2,0,.3,0,.3.2.4.3c.2,0,.4.2.6.3.2,0,.6,0,.9,0s.6,0,.8,0,.4-.2.6-.3c.2,0,.3-.3.3-.5.1-.2.1-.4.1-.6,0-.3-.1-.5-.2-.6-.1-.2-.3-.3-.5-.4-.2,0-.5-.2-.8-.3s-.6-.2-.9-.3c-.3,0-.6-.2-.9-.3-.3,0-.5-.3-.8-.5-.2-.2-.4-.4-.5-.7s-.2-.6-.2-1,.1-.7.2-1c.1-.3.4-.6.6-.8.3-.2.6-.4,1-.6.4-.1.9-.2,1.4-.2s1.1.1,1.6.3c.5.2.9.5,1.2.8l-.2.5Z"/>
  <g>
    <path class="st0" d="M45.2,17.7V.4h6c1.1,0,2.1,0,2.9.3.8.2,1.5.5,2,.9s.9.9,1.1,1.5c.2.6.4,1.2.4,1.9s0,.8-.2,1.2c0,.4-.3.7-.6,1s-.6.6-1,.9c-.4.3-.9.5-1.4.7,2.4.5,3.6,1.8,3.6,3.9s0,1.4-.4,2c-.3.6-.7,1.2-1.2,1.6-.5.5-1.2.8-2,1.1-.8.3-1.7.4-2.7.4h-6.5ZM48.5,7.9h2.5c1.1,0,1.9-.2,2.5-.6s.9-1,.9-1.9-.3-1.6-.8-1.9c-.5-.4-1.3-.6-2.4-.6h-2.8v5h0ZM48.5,10.1v5.1h3.3c.6,0,1.1-.1,1.5-.2.4-.1.7-.3,1-.6.2-.2.4-.5.5-.8s.2-.7.2-1,0-.7-.2-1c0-.3-.3-.6-.6-.8s-.6-.4-1-.5-.9-.2-1.5-.2h-3.2Z"/>
    <path class="st0" d="M64.5,17.7h-3.2V.4h3.2v17.3Z"/>
    <path class="st0" d="M80.6.4v2.6h-5.2v14.7h-3.2V3h-5.2V.4h13.6Z"/>
    <path class="st0" d="M94.9.4v2.6h-5.2v14.7h-3.2V3h-5.2V.4h13.6Z"/>
    <path class="st0" d="M107.9.4v2.6h-7.7v4.8h6.1v2.5h-6.1v4.9h7.7v2.6h-10.9V.4h10.9Z"/>
    <path class="st0" d="M114,10.9v6.8h-3.2V.4h5.3c1.2,0,2.2,0,3,.4.8.2,1.5.6,2.1,1,.5.4.9,1,1.2,1.6.3.6.4,1.3.4,2s0,1.1-.3,1.7-.4,1-.7,1.4c-.3.4-.7.8-1.2,1.1s-1,.6-1.6.8c.4.2.8.6,1.1,1l4.3,6.4h-2.9c-.3,0-.5-.1-.7-.2s-.4-.3-.5-.5l-3.6-5.6c0-.2-.3-.4-.4-.4-.2-.1-.4-.1-.7-.1h-1.6ZM114,8.6h2c.6,0,1.1-.1,1.6-.2.5-.2.8-.4,1.1-.6s.5-.6.7-1c0-.4.2-.8.2-1.2,0-.9-.3-1.6-.9-2-.6-.5-1.5-.7-2.7-.7h-2v5.7Z"/>
  </g>
</svg>